<?xml version="1.0" encoding="UTF-8"?>
<svg width="28px" height="28px" viewBox="0 0 28 28" version="1.1" xmlns="http://www.w3.org/2000/svg" xmlns:xlink="http://www.w3.org/1999/xlink">
    <!-- Generator: sketchtool 63.1 (101010) - https://sketch.com -->
    <title>D6644337-F268-4B5B-A308-2A1B13B7F5F9</title>
    <desc>Created with sketchtool.</desc>
    <g id="eNACH-Web-V3" stroke="none" stroke-width="1" fill="none" fill-rule="evenodd">
        <g id="4.1-Contact-us" transform="translate(-372.000000, -366.000000)" fill="#168DE2" fill-rule="nonzero">
            <g id="Personal-Details" transform="translate(314.000000, 150.000000)">
                <g id="Name">
                    <g id="Whatsapp-us" transform="translate(44.000000, 202.000000)">
                        <g id="ic_call_black_24px">
                            <path d="M19.6311111,26.1177778 C21.8711111,30.52 25.48,34.1133333 29.8822222,36.368889 L33.3044444,32.9466667 C33.7244444,32.5266667 34.3466667,32.3866667 34.891111,32.5733333 C36.6333333,33.148889 38.5155556,33.46 40.4444444,33.46 C41.3,33.46 42,34.16 42,35.0155556 L42,40.4444444 C42,41.3 41.3,42 40.4444444,42 C25.8377778,42 14,30.1622222 14,15.5555556 C14,14.7 14.7,14 15.5555556,14 L21,14 C21.8555556,14 22.5555556,14.7 22.5555556,15.5555556 C22.5555556,17.5 22.8666667,19.3666667 23.4422222,21.1088889 C23.6133333,21.6533333 23.4888889,22.26 23.0533333,22.6955556 L19.6311111,26.1177778 Z" id="Shape"></path>
                        </g>
                    </g>
                </g>
            </g>
        </g>
    </g>
</svg>